<?xml version="1.0"?>
<svg xmlns="http://www.w3.org/2000/svg" viewBox="0 0 64 64" width="512" height="512"><g id="Outline"><g><path d="M34.139,50.233a1,1,0,0,0-1.308.538A14.909,14.909,0,0,1,18.654,60c-4.3-.1-7.42-3.2-8.356-8H18a1,1,0,0,0,0-2H10.038c-.024-.368-.038-.742-.038-1.125V48a1,1,0,0,0-.553-.9L4.314,44.539l4.4-9.523a1,1,0,1,0-1.816-.838l-4.8,10.4A1,1,0,0,0,2.553,45.9L8,48.618v.257C8,56.46,12.362,61.855,18.609,62c.132,0,.263,0,.395,0A16.888,16.888,0,0,0,34.677,51.541,1,1,0,0,0,34.139,50.233Z"/><path d="M42.476,42A18.837,18.837,0,0,0,43.7,40.043a1,1,0,0,0-1.758-.955A16.744,16.744,0,0,1,40.7,41.032c-.007.01-.011.022-.018.032a17.174,17.174,0,0,1-2.728,2.911A1,1,0,0,0,39.246,45.5c.383-.323.733-.682,1.089-1.034a35.98,35.98,0,0,0,3.77,16.977,1,1,0,0,0,1.79-.894A34.046,34.046,0,0,1,42.476,42Z"/><path d="M20,30.5A3.5,3.5,0,1,0,16.5,34,3.5,3.5,0,0,0,20,30.5Zm-5,0A1.5,1.5,0,1,1,16.5,32,1.5,1.5,0,0,1,15,30.5Z"/><path d="M46,30a4,4,0,1,0,4,4A4,4,0,0,0,46,30Zm0,6a2,2,0,1,1,2-2A2,2,0,0,1,46,36Z"/><path d="M59.362,15.4a1,1,0,0,0-.608,1.277A3.949,3.949,0,0,1,59,18a4,4,0,0,1-4,4,3.716,3.716,0,0,1-.822-.1,1,1,0,0,0-1.212.893,3.479,3.479,0,0,1-6.343,1.689,1,1,0,0,0-1.759.218,2.037,2.037,0,0,1-2.63,1.149,1,1,0,0,0-1.105.23A2.934,2.934,0,0,1,39,27a3,3,0,0,1-2.6-1.54.974.974,0,0,0-.96-.506l-.221.025A1.715,1.715,0,0,1,35,25a5.006,5.006,0,0,1-5-5,1,1,0,0,0-2,0,7.009,7.009,0,0,0,7,7h.021A4.992,4.992,0,0,0,39,29a4.89,4.89,0,0,0,3.1-1.1,4.055,4.055,0,0,0,3.847-1.208,5.487,5.487,0,0,0,3.478,1.3A4.994,4.994,0,0,0,59,26a1,1,0,0,0-2,0,2.994,2.994,0,0,1-5.515,1.62A5.435,5.435,0,0,0,54.774,24,5.981,5.981,0,0,0,61,18a5.9,5.9,0,0,0-.361-1.993A1,1,0,0,0,59.362,15.4Z"/><path d="M56.582,7.028a4.992,4.992,0,0,0-4.118-3.007,3.973,3.973,0,0,0-6.45-.665A6.01,6.01,0,0,0,40.5,4.13,6,6,0,0,0,31,9c0,.137,0,.274.016.413a4.945,4.945,0,0,0-2.622,2.657,17.336,17.336,0,0,0-2.085-.057C16.213,12.371,8,21.081,8,31.428a1,1,0,1,0,2,0c0-9.282,7.348-17.1,16.379-17.417.517-.015,1.05,0,1.626.038a4.979,4.979,0,0,0,1.271,3.264,1,1,0,1,0,1.5-1.33A2.951,2.951,0,0,1,30,14a3.016,3.016,0,0,1,2.348-2.923,1,1,0,0,0,.758-1.2A3.992,3.992,0,0,1,39.8,6.149a1,1,0,0,0,1.4,0,3.991,3.991,0,0,1,4.682-.664,1,1,0,0,0,1.36-.411,1.98,1.98,0,0,1,3.635.269.955.955,0,0,0,.976.668C51.872,6.011,51.98,6,52,6a2.993,2.993,0,0,1,2.9,2.261,1,1,0,0,0,.968.753h.022c.063,0,.126-.008.115-.014a4,4,0,0,1,4,4,1,1,0,0,0,2,0A6.008,6.008,0,0,0,56.582,7.028Z"/><path d="M40,36a3,3,0,1,0-3,3A3,3,0,0,0,40,36Zm-3,1a1,1,0,1,1,1-1A1,1,0,0,1,37,37Z"/><path d="M10.293,12.707a1,1,0,0,0,1.414-1.414l-3-3A1,1,0,1,0,7.293,9.707Z"/><path d="M16.105,9.447a1,1,0,1,0,1.79-.894l-1-2a1,1,0,1,0-1.79.894Z"/><path d="M6,18H9a1,1,0,0,0,0-2H6a1,1,0,0,0,0,2Z"/><path d="M35,17a1,1,0,0,0-1,1v4a1,1,0,0,0,1,1h8a1,1,0,0,0,.708-.294l4-4A1,1,0,0,0,48,18V10h-.009A.973.973,0,0,0,47,9H39a1,1,0,0,0-.707.293l-4,4A1,1,0,0,0,35,15h7v6H36V18A1,1,0,0,0,35,17Zm9,2.586V14.414l2-2v5.172ZM39.414,11h5.172l-2,2H37.414Z"/><path d="M55,15a1,1,0,0,0,.831-1.555l-2-3a1.039,1.039,0,0,0-1.664,0l-2,3a1,1,0,0,0,1.664,1.11L53,12.8l1.168,1.752A1,1,0,0,0,55,15Z"/><path d="M52,16v3a1,1,0,0,0,2,0V16a1,1,0,0,0-2,0Z"/></g></g></svg>
